<?xml version="1.0" encoding="UTF-8"?>
<svg xmlns="http://www.w3.org/2000/svg" viewBox="0 0 1200 630" width="1200" height="630">
  <defs>
    <linearGradient id="g34854" x1="87.73547901113861%" y1="17.197048550474634%" x2="12.264520988861399%" y2="82.80295144952537%">
      <stop offset="0%" stop-color="#1E40AF"/>
      <stop offset="100%" stop-color="#1E3A8A"/>
    </linearGradient>
  </defs>
  <rect width="1200" height="630" fill="url(#g34854)"/>
  <path d="M 80 332.9306597681716 L 80 332.9306597681716 L 88 332.9306597681716 L 96 332.9306597681716 L 104 332.9306597681716 L 112 332.9306597681716 L 120 332.9306597681716 L 128 332.9306597681716 L 136 332.9306597681716 L 144 332.9306597681716 L 152 332.9306597681716 L 160 332.9306597681716 L 168 332.9306597681716 L 176 332.9306597681716 L 184 332.9306597681716 L 192 332.9306597681716 L 200 332.9306597681716 L 208 332.9306597681716 L 216 332.9306597681716 L 224 332.9306597681716 L 232 332.9306597681716 L 240 332.9306597681716 L 248 332.9306597681716 L 256 283.2435267222784 L 264 265.5708880090026 L 272 268.00127169160373 L 280 332.9306597681716 L 288 332.9306597681716 L 296 332.9306597681716 L 304 332.9306597681716 L 312 332.9306597681716 L 320 332.9306597681716 L 328 332.9306597681716 L 336 332.9306597681716 L 344 332.9306597681716 L 352 332.9306597681716 L 360 332.9306597681716 L 368 332.9306597681716 L 376 332.9306597681716 L 384 332.9306597681716 L 392 332.9306597681716 L 400 332.9306597681716 L 408 332.9306597681716 L 416 332.9306597681716 L 424 332.9306597681716 L 432 332.9306597681716 L 440 332.9306597681716 L 448 332.9306597681716 L 456 332.9306597681716 L 464 332.9306597681716 L 472 332.9306597681716 L 480 332.9306597681716 L 488 332.9306597681716 L 496 332.9306597681716 L 504 294.00174945318 L 512 257.962477520107 L 520 253.1529486853419 L 528 316.6799064861456 L 536 332.9306597681716 L 544 332.9306597681716 L 552 332.9306597681716 L 560 332.9306597681716 L 568 332.9306597681716 L 576 332.9306597681716 L 584 332.9306597681716 L 592 332.9306597681716 L 600 332.9306597681716 L 608 332.9306597681716 L 616 332.9306597681716 L 624 332.9306597681716 L 632 332.9306597681716 L 640 332.9306597681716 L 648 332.9306597681716 L 656 332.9306597681716 L 664 332.9306597681716 L 672 332.9306597681716 L 680 332.9306597681716 L 688 332.9306597681716 L 696 332.9306597681716 L 704 332.9306597681716 L 712 332.9306597681716 L 720 332.9306597681716 L 728 332.9306597681716 L 736 332.9306597681716 L 744 332.9306597681716 L 752 315.54651219849165 L 760 265.5954589123153 L 768 253.52496616308645 L 776 295.5229293470113 L 784 332.9306597681716 L 792 332.9306597681716 L 800 332.9306597681716 L 808 332.9306597681716 L 816 332.9306597681716 L 824 332.9306597681716 L 832 332.9306597681716 L 840 332.9306597681716 L 848 332.9306597681716 L 856 332.9306597681716 L 864 332.9306597681716 L 872 332.9306597681716 L 880 332.9306597681716 L 888 332.9306597681716 L 896 332.9306597681716 L 904 332.9306597681716 L 912 332.9306597681716 L 920 332.9306597681716 L 928 332.9306597681716 L 936 332.9306597681716 L 944 332.9306597681716 L 952 332.9306597681716 L 960 332.9306597681716 L 968 332.9306597681716 L 976 332.9306597681716 L 984 332.9306597681716 L 992 332.9306597681716 L 1000 332.9306597681716 L 1008 261.635923159242 L 1016 238.07568965655747 L 1024 283.28853013074763 L 1032 332.9306597681716 L 1040 332.9306597681716 L 1048 332.9306597681716 L 1056 332.9306597681716 L 1064 332.9306597681716 L 1072 332.9306597681716 L 1080 332.9306597681716 L 1088 332.9306597681716 L 1096 332.9306597681716 L 1104 332.9306597681716 L 1112 332.9306597681716 L 1120 332.9306597681716" fill="none" stroke="rgba(255,255,255,0.18)" stroke-width="2.5"/><rect x="391.4996229689568" y="199.47595603764057" width="24" height="80" rx="4" fill="rgba(255,255,255,0.1)"/><rect x="363.4996229689568" y="227.47595603764057" width="80" height="24" rx="4" fill="rgba(255,255,255,0.1)"/><path d="M 984.9048869218677 211.75846522673965 C 984.9048869218677 196.75846522673965 949.9048869218677 161.75846522673965 949.9048869218677 176.75846522673965 C 949.9048869218677 191.75846522673965 984.9048869218677 206.75846522673965 984.9048869218677 226.75846522673965 C 984.9048869218677 206.75846522673965 1019.9048869218677 191.75846522673965 1019.9048869218677 176.75846522673965 C 1019.9048869218677 161.75846522673965 984.9048869218677 196.75846522673965 984.9048869218677 211.75846522673965 Z" fill="rgba(255,255,255,0.08)" stroke="rgba(255,255,255,0.15)" stroke-width="1.5"/><circle cx="843.9203929156065" cy="383.10383739415556" r="31.93370454874821" fill="none" stroke="rgba(255,255,255,0.06881505161523818)" stroke-width="1.5"/><circle cx="402.1858069114387" cy="400.3907828312367" r="26.69719167216681" fill="none" stroke="rgba(255,255,255,0.12129811104387045)" stroke-width="1.5"/><circle cx="674.3834908353165" cy="391.94960166700184" r="36.899926019134" fill="none" stroke="rgba(255,255,255,0.06522878360003233)" stroke-width="1.5"/><circle cx="693.5358958784491" cy="555.297357449308" r="16.42603054107167" fill="none" stroke="rgba(255,255,255,0.10145060563459993)" stroke-width="1.5"/>
  <circle cx="461.8937624618411" cy="379.0515964385122" r="2.1371745080687106" fill="rgba(255,255,255,0.035267307849135246)"/><circle cx="752.4547110311687" cy="594.782278588973" r="2.144705027807504" fill="rgba(255,255,255,0.039253648295998575)"/><circle cx="69.61250631138682" cy="593.9993156678975" r="2.2715011863037944" fill="rgba(255,255,255,0.04333842683816329)"/><circle cx="524.6926252730191" cy="536.5894184354693" r="1.1300871851854026" fill="rgba(255,255,255,0.07863546427804977)"/><circle cx="35.206024535000324" cy="267.600950722117" r="2.5804816633462906" fill="rgba(255,255,255,0.044005133544560524)"/><circle cx="230.31373461708426" cy="253.58254852239043" r="2.7725839763879776" fill="rgba(255,255,255,0.06811682860832662)"/><circle cx="215.04776934161782" cy="333.3684874861501" r="1.4395204936154187" fill="rgba(255,255,255,0.035856125033460556)"/><circle cx="114.20146375894547" cy="144.18342138407752" r="1.723178791347891" fill="rgba(255,255,255,0.03613281710539013)"/><circle cx="903.1998720020056" cy="393.187281768769" r="2.9822923243045807" fill="rgba(255,255,255,0.04795614591101184)"/><circle cx="1003.2098282128572" cy="507.1930468152277" r="2.218753395602107" fill="rgba(255,255,255,0.04133586132200435)"/><circle cx="412.8204960376024" cy="174.86339690163732" r="2.510611995588988" fill="rgba(255,255,255,0.03746596857206896)"/><circle cx="870.0615640729666" cy="256.0931799793616" r="2.227753967512399" fill="rgba(255,255,255,0.07996827890863642)"/>
  <text x="600" y="335" font-family="system-ui, -apple-system, 'Segoe UI', sans-serif" font-size="68" font-weight="700" fill="rgba(0,0,0,0.15)" text-anchor="middle" letter-spacing="1">PCAT</text>
  <text x="600" y="332" font-family="system-ui, -apple-system, 'Segoe UI', sans-serif" font-size="68" font-weight="700" fill="white" text-anchor="middle" letter-spacing="1">PCAT</text>
  <g transform="translate(1140, 575)">
    <rect x="0" y="0" width="40" height="40" rx="8" fill="rgba(255,255,255,0.15)"/>
    <text x="20" y="29" font-family="sans-serif" font-weight="bold" font-size="24" fill="rgba(255,255,255,0.6)" text-anchor="middle">K</text>
  </g>
</svg>